<svg xmlns="http://www.w3.org/2000/svg" xmlns:xlink="http://www.w3.org/1999/xlink" width="500" zoomAndPan="magnify" viewBox="0 0 375 374.999991" height="500" preserveAspectRatio="xMidYMid meet" version="1.0"><defs><clipPath id="19ea6fd037"><path d="M 34.902344 83.007812 L 340.152344 83.007812 L 340.152344 292.257812 L 34.902344 292.257812 Z M 34.902344 83.007812 " clip-rule="nonzero"/></clipPath></defs><g clip-path="url(#19ea6fd037)"><path fill="#2d3277" d="M 76.519531 418.527344 L 80.871094 418.527344 L 80.871094 505.558594 L 64.398438 505.558594 L 64.398438 429.09375 C 64.398438 426.609375 69.683594 418.527344 76.519531 418.527344 Z M 166.652344 437.796875 C 158.570312 437.796875 152.355469 441.21875 148.003906 448.054688 L 148.003906 418.527344 L 146.140625 418.527344 C 138.058594 418.527344 133.707031 422.878906 131.53125 426.609375 L 131.53125 425.988281 L 131.53125 476.03125 C 131.53125 495.613281 141.789062 505.558594 162.300781 505.558594 C 182.8125 505.246094 192.757812 494.058594 192.757812 472.300781 C 192.757812 449.609375 184.054688 438.421875 166.652344 437.796875 Z M 161.679688 491.261719 C 152.355469 491.261719 147.691406 484.421875 148.003906 471.367188 C 148.625 458.625 152.976562 452.40625 161.988281 452.40625 C 171.003906 452.40625 175.351562 458.625 175.976562 471.367188 C 175.976562 484.734375 171.003906 491.261719 161.679688 491.261719 Z M 202.390625 471.367188 C 203.011719 450.230469 213.269531 438.417969 235.335938 438.417969 L 240.308594 438.417969 L 240.308594 455.515625 L 232.539062 455.515625 C 223.214844 455.515625 219.175781 461.421875 219.175781 471.054688 L 219.175781 505.246094 L 202.390625 505.246094 Z M 266.414062 488.460938 C 269.210938 490.949219 272.941406 492.191406 277.914062 492.191406 C 281.332031 492.191406 284.441406 491.261719 286.925781 489.394531 C 289.414062 487.53125 290.96875 485.664062 291.589844 483.800781 L 307.128906 483.800781 C 304.644531 491.570312 300.914062 496.855469 295.628906 500.273438 C 290.347656 503.691406 284.441406 505.246094 276.984375 505.246094 C 272.011719 505.246094 267.347656 504.3125 263.308594 502.761719 C 259.265625 501.207031 255.847656 498.71875 253.050781 495.921875 C 250.253906 492.8125 248.078125 489.394531 246.523438 485.355469 C 244.96875 481.3125 244.347656 476.652344 244.347656 471.675781 C 244.347656 467.015625 245.28125 462.351562 246.835938 458.3125 C 248.390625 454.269531 250.566406 450.542969 253.363281 447.742188 C 256.160156 444.636719 259.578125 442.460938 263.617188 440.59375 C 267.660156 438.730469 272.011719 438.109375 276.984375 438.109375 C 282.265625 438.109375 287.238281 439.039062 291.277344 441.214844 C 295.320312 443.390625 298.738281 446.1875 301.222656 449.609375 C 303.710938 453.027344 305.574219 457.066406 306.820312 461.730469 C 308.0625 466.082031 308.371094 471.054688 308.0625 476.027344 L 261.753906 476.027344 C 262.375 481.933594 263.929688 485.976562 266.414062 488.460938 Z M 286.304688 454.894531 C 284.128906 452.71875 281.023438 451.472656 276.671875 451.472656 C 273.875 451.472656 271.386719 452.097656 269.523438 453.027344 C 267.660156 453.960938 266.105469 455.203125 265.171875 456.449219 C 263.929688 458 263.308594 459.246094 262.6875 460.800781 C 262.0625 462.351562 262.0625 463.90625 261.753906 465.152344 L 290.347656 465.152344 C 290.035156 460.488281 288.480469 457.070312 286.304688 454.894531 Z M 98.585938 418.527344 L 115.058594 418.527344 L 115.058594 433.445312 L 98.585938 433.445312 Z M 98.585938 440.90625 L 115.058594 440.90625 L 115.058594 505.246094 L 98.585938 505.246094 Z M 399.125 384.023438 C 396.328125 387.132812 392.597656 389 387.933594 389 C 383.273438 389 379.542969 387.132812 376.746094 384.023438 C 373.949219 380.917969 373.015625 375.632812 373.015625 369.417969 C 373.015625 362.890625 374.261719 358.226562 376.746094 355.117188 C 379.542969 352.011719 383.273438 350.144531 387.933594 350.144531 C 392.597656 350.144531 396.328125 352.011719 399.125 355.117188 C 401.921875 358.226562 402.851562 363.511719 402.851562 369.417969 C 402.851562 375.324219 401.921875 380.296875 399.125 384.023438 Z M 412.175781 345.484375 C 407.203125 338.957031 398.8125 335.226562 387.933594 335.226562 C 377.367188 335.226562 368.664062 338.332031 363.691406 345.484375 C 358.71875 352.011719 355.613281 360.089844 355.613281 369.105469 C 355.613281 378.429688 358.410156 386.511719 363.691406 392.726562 C 368.664062 399.253906 377.058594 402.675781 387.933594 402.675781 C 398.503906 402.675781 407.203125 399.566406 412.175781 392.726562 C 417.148438 386.199219 420.257812 378.121094 420.257812 369.105469 C 420.566406 360.402344 417.769531 352.320312 412.175781 345.484375 M 331.371094 384.023438 C 329.195312 387.132812 325.464844 389 320.804688 389 C 316.140625 389 312.414062 387.132812 310.546875 384.023438 C 308.371094 380.296875 307.441406 375.632812 307.441406 369.417969 C 307.441406 363.820312 308.371094 359.46875 310.546875 356.050781 C 312.722656 352.320312 316.140625 350.457031 321.113281 350.457031 C 324.222656 350.457031 327.019531 351.386719 329.503906 353.253906 C 333.234375 356.363281 335.410156 362.578125 335.410156 370.660156 C 334.476562 376.253906 333.855469 380.917969 331.371094 384.023438 Z M 350.640625 316.265625 C 350.640625 316.265625 333.855469 314.398438 333.855469 327.765625 L 333.855469 345.480469 C 331.992188 342.683594 329.816406 340.507812 326.398438 338.332031 C 323.601562 336.46875 319.871094 336.15625 316.140625 336.15625 C 307.75 336.15625 301.222656 339.265625 295.941406 345.480469 C 290.96875 351.386719 288.480469 360.402344 288.480469 371.589844 C 288.480469 380.917969 290.65625 388.996094 295.941406 394.28125 C 300.914062 400.1875 310.859375 402.675781 319.558594 402.675781 C 350.328125 402.675781 349.707031 376.566406 349.707031 376.566406 Z M 267.96875 376.253906 C 267.96875 381.847656 266.105469 385.578125 263.308594 387.753906 C 260.199219 389.621094 256.78125 390.863281 253.363281 390.863281 C 251.1875 390.863281 249.320312 390.550781 247.765625 389 C 246.214844 387.445312 245.59375 385.890625 245.59375 383.09375 C 245.59375 379.984375 246.835938 377.496094 249.320312 375.945312 C 250.566406 375.011719 253.363281 374.078125 256.78125 373.769531 L 260.511719 372.835938 C 262.375 372.523438 263.617188 371.902344 265.171875 371.902344 C 266.105469 371.589844 267.347656 370.96875 268.28125 370.660156 Z M 276.359375 339.886719 C 270.765625 337.089844 264.859375 335.847656 257.710938 335.847656 C 247.144531 335.847656 239.375 338.644531 235.023438 344.238281 C 232.226562 347.96875 230.984375 352.320312 230.363281 357.605469 L 246.214844 357.605469 C 246.523438 355.429688 247.457031 353.5625 248.386719 352.011719 C 250.253906 350.144531 253.050781 349.210938 256.78125 349.210938 C 260.507812 349.210938 262.683594 349.523438 264.859375 350.457031 C 266.726562 351.386719 267.65625 353.253906 267.65625 356.050781 C 267.65625 358.226562 266.414062 359.78125 263.929688 360.714844 C 262.683594 361.023438 260.199219 361.644531 257.402344 361.957031 L 251.808594 362.265625 C 245.28125 363.199219 240.617188 364.441406 237.199219 366.308594 C 231.296875 369.417969 228.1875 375.632812 228.1875 383.09375 C 228.1875 389 230.050781 393.660156 233.78125 397.078125 C 237.511719 400.1875 242.171875 401.742188 248.078125 402.054688 C 284.441406 403.296875 284.128906 382.78125 284.128906 378.742188 L 284.128906 355.117188 C 284.441406 348.28125 281.953125 342.6875 276.359375 339.886719 M 194 350.144531 C 198.039062 350.144531 201.148438 351.390625 203.324219 353.875 C 204.566406 355.738281 205.5 357.917969 205.5 360.402344 L 223.214844 360.402344 C 222.28125 351.386719 219.171875 344.859375 213.890625 341.753906 C 208.917969 338.023438 201.769531 336.78125 193.378906 336.78125 C 183.433594 336.78125 175.664062 339.578125 170.070312 345.792969 C 164.472656 352.011719 161.675781 360.402344 161.675781 370.96875 C 161.675781 380.917969 163.851562 388.375 169.136719 394.28125 C 174.109375 400.1875 182.191406 403.296875 192.757812 403.296875 C 203.324219 403.296875 211.402344 399.566406 217 392.726562 C 220.105469 388.066406 221.972656 383.402344 222.59375 378.121094 L 204.878906 378.121094 C 204.566406 381.226562 203.632812 384.027344 201.769531 386.199219 C 199.90625 388.066406 197.109375 389.308594 192.757812 389.308594 C 187.164062 389.308594 182.8125 386.511719 181.257812 381.226562 C 180.324219 378.429688 179.394531 374.699219 179.394531 370.039062 C 179.394531 365.375 179.703125 361.023438 181.257812 358.539062 C 184.054688 352.941406 187.785156 350.144531 194 350.144531 M 157.015625 336.160156 C 120.03125 336.160156 122.519531 368.796875 122.519531 368.796875 L 122.519531 401.742188 L 139.300781 401.742188 L 139.300781 370.972656 C 139.300781 365.996094 139.613281 361.957031 141.164062 359.78125 C 143.339844 355.742188 147.691406 353.253906 154.53125 353.253906 L 156.394531 353.253906 C 157.328125 353.253906 158.257812 353.253906 159.191406 353.566406 L 159.191406 336.78125 L 157.949219 336.78125 C 157.636719 336.160156 157.636719 336.160156 157.015625 336.160156 M 73.722656 353.253906 C 75.898438 351.078125 79.316406 349.523438 83.667969 349.523438 C 87.398438 349.523438 90.816406 350.457031 93.613281 352.632812 C 96.410156 354.808594 97.652344 358.226562 97.652344 362.578125 L 69.0625 362.578125 C 69.992188 358.847656 71.238281 355.742188 73.722656 353.253906 Z M 96.101562 384.027344 C 95.789062 384.957031 94.855469 385.890625 93.925781 386.203125 C 91.75 388.066406 88.332031 388.378906 84.601562 388.378906 C 80.871094 388.378906 78.074219 388.066406 75.585938 386.203125 C 71.546875 384.027344 69.0625 379.050781 69.0625 373.148438 L 115.058594 373.148438 C 115.058594 367.550781 115.058594 363.199219 114.746094 360.714844 C 113.816406 355.742188 112.574219 351.390625 109.777344 347.660156 C 106.976562 343.617188 103.25 340.199219 99.207031 338.335938 C 95.167969 336.46875 89.882812 335.539062 84.289062 335.539062 C 74.964844 335.539062 67.507812 338.335938 61.914062 344.550781 C 56.320312 350.457031 52.898438 358.847656 52.898438 369.726562 C 52.898438 381.226562 56.007812 389.933594 62.84375 394.90625 C 69.371094 399.878906 76.832031 402.984375 85.222656 402.984375 C 95.480469 402.984375 103.558594 399.878906 108.84375 393.660156 C 111.949219 390.554688 113.816406 387.132812 114.4375 383.714844 Z M 45.75 401.433594 L 30.210938 401.433594 L 30.210938 363.199219 C 30.210938 359.46875 29.28125 351.699219 19.023438 351.699219 C 12.496094 351.699219 7.523438 356.363281 7.523438 363.199219 L 7.523438 401.433594 L -8.015625 401.433594 L -8.015625 363.199219 C -8.015625 359.46875 -8.949219 351.699219 -19.203125 351.699219 C -25.730469 351.699219 -30.390625 356.363281 -30.390625 363.199219 L -30.390625 401.433594 L -45.933594 401.433594 L -45.933594 363.511719 C -45.933594 347.660156 -35.675781 335.539062 -19.515625 335.539062 C -11.433594 335.539062 -4.90625 338.644531 -0.246094 344.550781 C 4.417969 338.957031 10.941406 335.539062 19.023438 335.539062 C 35.804688 335.539062 45.441406 347.039062 45.441406 363.511719 Z M 335.722656 180.125 C 335.722656 126.972656 269.523438 83.457031 187.785156 83.457031 C 106.046875 83.457031 39.847656 126.972656 39.847656 180.125 L 39.847656 185.71875 C 39.847656 242.289062 97.65625 287.980469 187.785156 287.980469 C 278.226562 287.980469 335.722656 242.289062 335.722656 185.71875 Z M 335.722656 180.125 " fill-opacity="1" fill-rule="nonzero"/></g><path fill="#ffe600" d="M 330.4375 180.125 C 330.4375 230.167969 266.726562 270.886719 188.40625 270.886719 C 110.085938 270.886719 46.375 230.167969 46.375 180.125 C 46.375 130.082031 110.085938 89.363281 188.40625 89.363281 C 266.726562 89.363281 330.4375 130.082031 330.4375 180.125 Z M 330.4375 180.125 " fill-opacity="1" fill-rule="nonzero"/><path fill="#ffffff" d="M 141.167969 151.527344 C 141.167969 151.527344 139.613281 153.082031 140.542969 154.328125 C 142.71875 157.125 149.558594 158.679688 156.707031 157.125 C 160.746094 156.191406 166.339844 151.839844 171.3125 147.800781 C 176.90625 143.449219 182.5 138.785156 188.097656 137.230469 C 194 135.367188 197.730469 136.296875 200.214844 136.921875 C 203.015625 137.851562 206.121094 139.71875 211.40625 143.449219 C 221.039062 150.597656 260.199219 184.789062 267.039062 190.691406 C 272.320312 188.207031 296.5625 177.949219 329.507812 170.488281 C 326.710938 153.082031 316.140625 136.921875 299.980469 123.867188 C 277.605469 133.191406 249.945312 138.164062 222.90625 125.109375 C 222.90625 125.109375 208.296875 118.269531 193.691406 118.582031 C 172.246094 119.203125 163.230469 128.21875 153.285156 138.164062 Z M 141.167969 151.527344 " fill-opacity="1" fill-rule="nonzero"/><path fill="#ffffff" d="M 265.484375 194.421875 C 265.171875 194.113281 219.484375 154.324219 209.230469 146.554688 C 203.324219 142.203125 199.90625 140.960938 196.488281 140.339844 C 194.621094 140.027344 192.136719 140.339844 190.273438 140.960938 C 185.609375 142.203125 179.082031 146.554688 173.488281 150.90625 C 167.582031 155.570312 162.300781 159.921875 157.328125 160.851562 C 150.800781 162.40625 143.03125 160.542969 139.613281 158.054688 C 138.058594 157.121094 137.125 155.878906 136.503906 154.636719 C 135.261719 151.527344 137.746094 149.042969 138.058594 148.730469 L 150.492188 135.054688 L 154.839844 130.703125 C 150.800781 131.324219 147.070312 132.257812 143.34375 133.191406 C 138.679688 134.433594 134.328125 135.675781 129.976562 135.675781 C 128.113281 135.675781 118.167969 134.121094 116.304688 133.5 C 104.804688 130.390625 94.859375 127.285156 79.941406 120.445312 C 62.226562 133.8125 50.105469 150.285156 46.6875 168.625 C 49.171875 169.246094 53.523438 170.488281 55.078125 170.800781 C 95.480469 179.8125 107.910156 189.136719 110.398438 191.003906 C 112.886719 188.207031 116.304688 186.652344 120.34375 186.652344 C 124.695312 186.652344 128.734375 188.828125 131.222656 192.246094 C 133.398438 190.382812 136.816406 188.828125 140.855469 188.828125 C 142.71875 188.828125 144.585938 189.136719 146.761719 189.761719 C 151.421875 191.3125 153.597656 194.421875 154.839844 197.21875 C 156.394531 196.597656 158.261719 195.976562 160.4375 195.976562 C 162.613281 195.976562 164.785156 196.597656 167.273438 197.53125 C 174.730469 200.640625 175.976562 208.097656 175.355469 213.695312 L 176.90625 213.695312 C 185.921875 213.695312 193.070312 220.84375 193.070312 229.855469 C 193.070312 232.652344 192.449219 235.140625 191.203125 237.316406 C 193.691406 238.558594 199.59375 241.667969 205.191406 241.046875 C 209.539062 240.425781 211.09375 239.179688 211.714844 238.25 C 212.027344 237.628906 212.648438 237.003906 212.027344 236.382812 L 200.527344 223.640625 C 200.527344 223.640625 198.664062 221.773438 199.285156 221.152344 C 199.90625 220.53125 201.148438 221.464844 202.082031 222.085938 C 207.988281 227.058594 214.824219 234.207031 214.824219 234.207031 C 214.824219 234.207031 215.445312 235.140625 217.933594 235.761719 C 220.109375 236.074219 224.148438 235.761719 226.945312 233.585938 C 227.566406 232.964844 228.5 232.34375 228.808594 231.722656 C 231.605469 227.992188 228.5 224.261719 228.5 224.261719 L 215.136719 209.34375 C 215.136719 209.34375 213.269531 207.476562 213.890625 206.855469 C 214.511719 206.234375 215.757812 207.167969 216.6875 207.789062 C 221.039062 211.207031 226.945312 217.421875 232.539062 223.019531 C 233.78125 223.949219 238.753906 227.058594 245.28125 222.707031 C 249.320312 219.910156 250.253906 216.800781 249.945312 214.316406 C 249.632812 211.207031 247.144531 208.71875 247.144531 208.71875 L 229.121094 190.382812 C 229.121094 190.382812 227.253906 188.828125 227.878906 187.894531 C 228.5 187.273438 229.742188 188.207031 230.675781 188.828125 C 236.578125 193.800781 252.117188 208.097656 252.117188 208.097656 C 252.429688 208.097656 257.714844 212.140625 264.550781 207.789062 C 267.039062 206.234375 268.589844 204.058594 268.589844 201.261719 C 268.902344 197.21875 265.484375 194.421875 265.484375 194.421875 Z M 265.484375 194.421875 " fill-opacity="1" fill-rule="nonzero"/><path fill="#ffffff" d="M 177.527344 217.734375 C 174.730469 217.734375 171.625 219.289062 171.3125 219.289062 C 171.003906 219.289062 171.3125 218.046875 171.625 217.421875 C 171.933594 216.800781 175.664062 205.613281 166.652344 201.570312 C 159.8125 198.464844 155.460938 201.882812 154.21875 203.4375 C 153.910156 203.746094 153.597656 203.746094 153.597656 203.4375 C 153.597656 201.570312 152.664062 195.976562 146.449219 194.113281 C 137.746094 191.3125 132.464844 197.53125 130.910156 199.707031 C 130.289062 194.734375 126.246094 191.003906 120.964844 191.003906 C 115.371094 191.003906 111.019531 195.355469 111.019531 200.949219 C 111.019531 206.542969 115.371094 210.894531 120.964844 210.894531 C 123.761719 210.894531 125.9375 209.964844 127.800781 208.097656 L 127.800781 208.410156 C 127.492188 210.894531 126.558594 219.910156 135.882812 223.328125 C 139.613281 224.882812 142.71875 223.640625 145.515625 221.773438 C 146.449219 221.152344 146.449219 221.464844 146.449219 222.085938 C 146.140625 224.261719 146.449219 229.234375 153.597656 232.03125 C 158.882812 234.207031 161.988281 232.03125 163.855469 230.167969 C 164.785156 229.234375 165.097656 229.546875 165.097656 230.789062 C 165.40625 237.316406 171.003906 242.601562 177.527344 242.601562 C 184.367188 242.601562 189.960938 237.003906 189.960938 230.167969 C 189.960938 223.328125 184.367188 217.734375 177.527344 217.734375 Z M 177.527344 217.734375 " fill-opacity="1" fill-rule="nonzero"/><path fill="#2d3277" d="M 267.347656 189.761719 C 253.363281 177.636719 221.039062 149.351562 212.027344 142.824219 C 207.054688 139.097656 203.636719 136.921875 200.527344 136.296875 C 199.285156 135.988281 197.417969 135.367188 194.933594 135.367188 C 192.757812 135.367188 190.269531 135.675781 187.785156 136.609375 C 182.191406 138.472656 176.597656 142.824219 171 147.175781 L 170.691406 147.488281 C 165.71875 151.527344 160.433594 155.570312 156.394531 156.503906 C 154.53125 156.8125 152.976562 157.125 151.113281 157.125 C 146.761719 157.125 142.71875 155.878906 141.167969 154.015625 C 140.855469 153.703125 141.167969 153.082031 141.789062 152.460938 L 154.21875 139.09375 C 163.855469 129.460938 172.867188 120.445312 194 119.824219 L 194.933594 119.824219 C 207.988281 119.824219 221.039062 125.730469 222.59375 126.351562 C 235.027344 132.257812 247.457031 135.367188 260.199219 135.367188 C 273.5625 135.367188 287.238281 131.945312 301.535156 125.417969 C 299.980469 124.175781 298.117188 122.621094 296.5625 121.378906 C 283.820312 126.972656 272.011719 129.460938 260.199219 129.460938 C 248.390625 129.460938 236.582031 126.664062 225.082031 121.066406 C 224.460938 120.757812 210.164062 113.917969 194.933594 113.917969 L 193.691406 113.917969 C 175.976562 114.230469 166.03125 120.445312 159.503906 126.042969 C 152.976562 126.042969 147.382812 127.90625 142.410156 129.148438 C 138.058594 130.394531 134.019531 131.324219 130.289062 131.324219 L 125.625 131.324219 C 121.277344 131.324219 99.519531 126.042969 82.425781 119.203125 C 80.5625 120.445312 79.007812 121.691406 77.144531 122.933594 C 95.167969 130.390625 117.234375 135.988281 124.074219 136.609375 C 125.9375 136.609375 128.113281 136.917969 130.289062 136.917969 C 134.949219 136.917969 139.300781 135.675781 143.964844 134.433594 C 146.761719 133.8125 149.558594 132.878906 152.355469 132.257812 L 149.867188 134.742188 L 137.4375 148.421875 C 136.503906 149.351562 134.328125 152.148438 135.570312 155.257812 C 136.195312 156.5 137.4375 157.746094 138.992188 158.988281 C 142.097656 160.851562 147.382812 162.40625 152.355469 162.40625 C 154.21875 162.40625 156.085938 162.097656 157.636719 161.785156 C 162.921875 160.542969 168.515625 156.191406 174.109375 151.527344 C 178.773438 147.796875 185.300781 143.136719 190.273438 141.582031 C 191.824219 141.269531 193.378906 140.960938 194.933594 140.960938 L 196.175781 140.960938 C 199.59375 141.269531 202.703125 142.515625 208.609375 146.867188 C 218.863281 154.636719 264.550781 194.421875 264.863281 194.734375 C 264.863281 194.734375 267.660156 197.21875 267.660156 201.570312 C 267.660156 203.746094 266.105469 205.921875 263.929688 207.476562 C 262.066406 208.71875 259.890625 209.34375 258.023438 209.34375 C 254.917969 209.34375 252.742188 207.789062 252.742188 207.789062 C 252.742188 207.789062 236.890625 193.488281 231.296875 188.515625 C 230.363281 187.585938 229.433594 186.960938 228.5 186.960938 C 227.878906 186.960938 227.566406 187.273438 227.257812 187.585938 C 226.324219 188.828125 227.257812 190.382812 228.5 191.3125 L 246.835938 209.652344 C 246.835938 209.652344 249.011719 211.828125 249.324219 214.625 C 249.324219 217.734375 248.078125 220.222656 244.972656 222.085938 C 242.796875 223.640625 240.621094 224.261719 238.445312 224.261719 C 235.648438 224.261719 233.78125 223.019531 233.160156 222.707031 L 230.363281 220.21875 C 225.703125 215.558594 220.730469 210.585938 217 207.789062 C 216.066406 207.167969 215.136719 206.234375 214.203125 206.234375 C 213.890625 206.234375 213.269531 206.234375 212.960938 206.855469 C 212.648438 207.164062 212.339844 208.097656 213.269531 209.652344 C 213.582031 210.273438 214.203125 210.585938 214.203125 210.585938 L 227.566406 225.503906 C 227.566406 225.503906 230.363281 228.921875 227.878906 231.722656 L 227.257812 232.34375 L 226.011719 233.585938 C 223.835938 235.449219 220.730469 235.761719 219.488281 235.761719 L 217.621094 235.761719 C 216.378906 235.449219 215.445312 235.140625 214.824219 234.519531 C 214.203125 233.585938 207.367188 227.058594 201.773438 222.394531 C 201.148438 221.773438 200.21875 221.152344 199.285156 221.152344 C 198.972656 221.152344 198.351562 221.464844 198.042969 221.773438 C 197.109375 223.019531 198.664062 224.882812 199.285156 225.503906 L 210.785156 237.9375 C 210.785156 237.9375 210.785156 238.246094 210.472656 238.871094 C 210.164062 239.492188 208.609375 240.734375 204.566406 241.355469 L 203.015625 241.355469 C 198.664062 241.355469 194.3125 239.179688 191.824219 237.9375 C 192.757812 235.761719 193.378906 233.273438 193.378906 230.789062 C 193.378906 221.464844 185.921875 214.003906 176.597656 214.003906 L 175.976562 214.003906 C 176.285156 209.652344 175.664062 201.570312 167.273438 198.152344 C 164.785156 197.21875 162.609375 196.597656 160.125 196.597656 C 158.261719 196.597656 156.707031 196.910156 154.839844 197.53125 C 152.976562 194.109375 150.179688 191.625 146.449219 190.382812 C 144.273438 189.757812 142.410156 189.449219 140.234375 189.449219 C 136.816406 189.449219 133.707031 190.382812 130.910156 192.558594 C 130.234375 191.726562 129.476562 190.980469 128.632812 190.320312 C 127.792969 189.660156 126.886719 189.097656 125.917969 188.640625 C 124.949219 188.183594 123.941406 187.839844 122.898438 187.609375 C 121.851562 187.378906 120.792969 187.265625 119.722656 187.273438 C 115.992188 187.273438 112.261719 188.828125 109.777344 191.3125 C 106.359375 188.515625 92.371094 179.8125 54.765625 171.109375 C 52.902344 170.800781 48.863281 169.554688 46.375 168.625 C 46.066406 170.488281 45.753906 172.664062 45.441406 174.839844 C 45.441406 174.839844 52.28125 176.394531 53.835938 176.703125 C 92.0625 185.097656 104.804688 194.109375 106.980469 195.664062 C 106.359375 197.53125 106.046875 199.394531 106.046875 201.261719 C 106.046875 209.339844 112.574219 215.558594 120.34375 215.558594 C 121.277344 215.558594 122.207031 215.558594 123.140625 215.246094 C 124.382812 221.152344 128.113281 225.503906 134.019531 227.679688 C 135.882812 228.300781 137.4375 228.613281 138.992188 228.613281 C 139.921875 228.613281 141.167969 228.613281 142.410156 228.300781 C 143.34375 231.097656 145.828125 234.519531 151.421875 236.695312 C 153.289062 237.625 155.152344 237.9375 157.015625 237.9375 C 158.570312 237.9375 160.125 237.625 161.367188 237.003906 C 163.855469 243.222656 170.070312 247.574219 176.90625 247.574219 C 181.570312 247.574219 185.921875 245.707031 189.027344 242.289062 C 191.828125 243.84375 197.421875 246.640625 203.324219 246.640625 L 205.5 246.640625 C 211.40625 246.019531 213.890625 243.53125 215.136719 241.976562 C 215.445312 241.667969 215.445312 241.355469 215.757812 241.046875 C 217 241.355469 218.554688 241.667969 220.417969 241.667969 C 223.527344 241.667969 226.632812 240.734375 229.742188 238.25 C 232.851562 236.074219 235.027344 232.964844 235.027344 230.167969 C 235.957031 230.476562 237.203125 230.476562 238.132812 230.476562 C 241.242188 230.476562 244.660156 229.542969 247.769531 227.371094 C 253.671875 223.640625 254.605469 218.355469 254.605469 215.246094 C 255.539062 215.558594 256.78125 215.558594 257.714844 215.558594 C 260.820312 215.558594 263.929688 214.625 266.726562 212.761719 C 270.457031 210.273438 272.632812 206.855469 272.941406 202.8125 C 273.253906 200.015625 272.320312 197.21875 271.078125 194.734375 C 281.023438 190.382812 303.398438 182.300781 330.128906 176.082031 C 330.128906 173.90625 329.816406 172.042969 329.195312 169.867188 C 297.183594 176.703125 273.253906 186.960938 267.347656 189.757812 Z M 177.527344 241.667969 C 171.3125 241.667969 166.339844 236.695312 166.03125 230.476562 C 166.03125 229.855469 166.03125 228.613281 164.785156 228.613281 C 164.164062 228.613281 163.855469 228.925781 163.230469 229.234375 C 161.988281 230.476562 160.125 231.722656 157.636719 231.722656 C 156.394531 231.722656 155.152344 231.410156 153.910156 230.789062 C 147.382812 227.992188 147.070312 223.640625 147.382812 221.773438 C 147.382812 221.152344 147.382812 220.84375 147.070312 220.53125 L 146.761719 220.222656 L 146.449219 220.222656 C 146.140625 220.222656 145.828125 220.222656 145.207031 220.84375 C 143.34375 222.085938 141.476562 222.707031 139.613281 222.707031 C 138.679688 222.707031 137.4375 222.398438 136.503906 222.085938 C 127.800781 218.667969 128.421875 210.585938 129.046875 208.097656 C 129.046875 207.476562 129.046875 207.167969 128.734375 206.855469 L 128.113281 206.234375 L 127.492188 206.855469 C 125.625 208.410156 123.449219 209.34375 121.277344 209.34375 C 116.304688 209.34375 112.261719 205.300781 112.261719 200.328125 C 112.261719 195.355469 116.304688 191.3125 121.277344 191.3125 C 125.625 191.3125 129.667969 194.734375 130.289062 199.085938 L 130.597656 201.570312 L 131.84375 199.394531 C 131.84375 199.085938 135.570312 193.488281 142.410156 193.800781 C 143.652344 193.800781 144.894531 194.113281 146.449219 194.421875 C 151.734375 195.976562 152.667969 200.949219 152.667969 202.8125 C 152.667969 204.058594 153.597656 204.058594 153.597656 204.058594 C 153.910156 204.058594 154.53125 203.746094 154.53125 203.4375 C 155.464844 202.503906 157.640625 200.640625 161.058594 200.640625 C 162.613281 200.640625 164.164062 200.949219 166.03125 201.882812 C 174.421875 205.613281 170.691406 216.179688 170.691406 216.492188 C 170.070312 218.355469 169.757812 218.976562 170.691406 219.597656 L 171.3125 219.597656 C 171.625 219.597656 172.246094 219.597656 172.867188 219.289062 C 174.109375 218.976562 175.664062 218.355469 177.21875 218.355469 C 183.433594 218.355469 188.71875 223.640625 188.71875 229.855469 C 189.027344 236.695312 183.746094 241.667969 177.53125 241.667969 Z M 177.527344 241.667969 " fill-opacity="1" fill-rule="nonzero"/></svg>